<mxfile host="65bd71144e">
    <diagram id="timeline" name="项目发展时间线">
        <mxGraphModel dx="1200" dy="800" grid="1" gridSize="10" guides="1" tooltips="1" connect="1" arrows="1" fold="1" page="1" pageScale="1" pageWidth="1200" pageHeight="800" math="0" shadow="0">
            <root>
                <mxCell id="0"/>
                <mxCell id="1" parent="0"/>
                
                <!-- 标题 -->
                <mxCell id="title" value="变电设备故障分析推理技术演进时间线" style="text;html=1;strokeColor=none;fillColor=none;align=center;verticalAlign=middle;whiteSpace=wrap;rounded=0;fontSize=18;fontStyle=1;fontColor=#1976D2;" parent="1" vertex="1">
                    <mxGeometry x="300" y="30" width="600" height="40" as="geometry"/>
                </mxCell>
                
                <!-- 主时间线 -->
                <mxCell id="main-timeline" value="" style="edgeStyle=orthogonalEdgeStyle;rounded=0;orthogonalLoop=1;jettySize=auto;html=1;strokeWidth=4;strokeColor=#1976D2;" parent="1" edge="1">
                    <mxGeometry relative="1" as="geometry">
                        <mxPoint x="150" y="400" as="sourcePoint"/>
                        <mxPoint x="1050" y="400" as="targetPoint"/>
                    </mxGeometry>
                </mxCell>
                
                <!-- 阶段1: 传统故障分析 -->
                <mxCell id="stage1-marker" value="" style="ellipse;whiteSpace=wrap;html=1;fillColor=#FF5722;strokeColor=#D84315;" parent="1" vertex="1">
                    <mxGeometry x="200" y="385" width="30" height="30" as="geometry"/>
                </mxCell>
                
                <mxCell id="stage1-date" value="2000-2010" style="text;html=1;strokeColor=none;fillColor=none;align=center;verticalAlign=middle;whiteSpace=wrap;rounded=0;fontSize=12;fontStyle=1;" parent="1" vertex="1">
                    <mxGeometry x="175" y="340" width="80" height="30" as="geometry"/>
                </mxCell>
                
                <mxCell id="stage1-content" value="传统故障分析阶段&#xa;• 人工经验主导&#xa;• 纸质记录管理&#xa;• 单点式问题解决&#xa;• 缺乏系统性分析" style="rounded=1;whiteSpace=wrap;html=1;fillColor=#ffccbc;strokeColor=#FF5722;fontSize=10;arcSize=10;" parent="1" vertex="1">
                    <mxGeometry x="120" y="240" width="170" height="80" as="geometry"/>
                </mxCell>
                
                <!-- 连接线1 -->
                <mxCell id="connect1" value="" style="edgeStyle=orthogonalEdgeStyle;rounded=0;orthogonalLoop=1;jettySize=auto;html=1;strokeWidth=2;strokeColor=#FF5722;" parent="1" source="stage1-marker" target="stage1-content" edge="1">
                    <mxGeometry relative="1" as="geometry"/>
                </mxCell>
                
                <!-- 阶段2: 数字化转型 -->
                <mxCell id="stage2-marker" value="" style="ellipse;whiteSpace=wrap;html=1;fillColor=#FF9800;strokeColor=#F57C00;" parent="1" vertex="1">
                    <mxGeometry x="350" y="385" width="30" height="30" as="geometry"/>
                </mxCell>
                
                <mxCell id="stage2-date" value="2010-2018" style="text;html=1;strokeColor=none;fillColor=none;align=center;verticalAlign=middle;whiteSpace=wrap;rounded=0;fontSize=12;fontStyle=1;" parent="1" vertex="1">
                    <mxGeometry x="325" y="450" width="80" height="30" as="geometry"/>
                </mxCell>
                
                <mxCell id="stage2-content" value="数字化转型阶段&#xa;• SCADA系统普及&#xa;• 数据库管理兴起&#xa;• 初步自动化监控&#xa;• 规则库建设" style="rounded=1;whiteSpace=wrap;html=1;fillColor=#ffe0b2;strokeColor=#FF9800;fontSize=10;arcSize=10;" parent="1" vertex="1">
                    <mxGeometry x="270" y="500" width="170" height="80" as="geometry"/>
                </mxCell>
                
                <!-- 连接线2 -->
                <mxCell id="connect2" value="" style="edgeStyle=orthogonalEdgeStyle;rounded=0;orthogonalLoop=1;jettySize=auto;html=1;strokeWidth=2;strokeColor=#FF9800;" parent="1" source="stage2-marker" target="stage2-content" edge="1">
                    <mxGeometry relative="1" as="geometry"/>
                </mxCell>
                
                <!-- 阶段3: 智能化探索 -->
                <mxCell id="stage3-marker" value="" style="ellipse;whiteSpace=wrap;html=1;fillColor=#4CAF50;strokeColor=#388E3C;" parent="1" vertex="1">
                    <mxGeometry x="500" y="385" width="30" height="30" as="geometry"/>
                </mxCell>
                
                <mxCell id="stage3-date" value="2018-2022" style="text;html=1;strokeColor=none;fillColor=none;align=center;verticalAlign=middle;whiteSpace=wrap;rounded=0;fontSize=12;fontStyle=1;" parent="1" vertex="1">
                    <mxGeometry x="475" y="340" width="80" height="30" as="geometry"/>
                </mxCell>
                
                <mxCell id="stage3-content" value="智能化探索阶段&#xa;• 机器学习应用&#xa;• 大数据分析&#xa;• 预测性维护&#xa;• 知识图谱初探" style="rounded=1;whiteSpace=wrap;html=1;fillColor=#c8e6c9;strokeColor=#4CAF50;fontSize=10;arcSize=10;" parent="1" vertex="1">
                    <mxGeometry x="420" y="240" width="170" height="80" as="geometry"/>
                </mxCell>
                
                <!-- 连接线3 -->
                <mxCell id="connect3" value="" style="edgeStyle=orthogonalEdgeStyle;rounded=0;orthogonalLoop=1;jettySize=auto;html=1;strokeWidth=2;strokeColor=#4CAF50;" parent="1" source="stage3-marker" target="stage3-content" edge="1">
                    <mxGeometry relative="1" as="geometry"/>
                </mxCell>
                
                <!-- 阶段4: RAG技术突破 -->
                <mxCell id="stage4-marker" value="" style="ellipse;whiteSpace=wrap;html=1;fillColor=#2196F3;strokeColor=#1976D2;" parent="1" vertex="1">
                    <mxGeometry x="650" y="385" width="30" height="30" as="geometry"/>
                </mxCell>
                
                <mxCell id="stage4-date" value="2022-2024" style="text;html=1;strokeColor=none;fillColor=none;align=center;verticalAlign=middle;whiteSpace=wrap;rounded=0;fontSize=12;fontStyle=1;" parent="1" vertex="1">
                    <mxGeometry x="625" y="450" width="80" height="30" as="geometry"/>
                </mxCell>
                
                <mxCell id="stage4-content" value="RAG技术突破阶段&#xa;• 大语言模型兴起&#xa;• RAG架构成熟&#xa;• 检索增强生成&#xa;• 专业知识融合" style="rounded=1;whiteSpace=wrap;html=1;fillColor=#bbdefb;strokeColor=#2196F3;fontSize=10;arcSize=10;" parent="1" vertex="1">
                    <mxGeometry x="570" y="500" width="170" height="80" as="geometry"/>
                </mxCell>
                
                <!-- 连接线4 -->
                <mxCell id="connect4" value="" style="edgeStyle=orthogonalEdgeStyle;rounded=0;orthogonalLoop=1;jettySize=auto;html=1;strokeWidth=2;strokeColor=#2196F3;" parent="1" source="stage4-marker" target="stage4-content" edge="1">
                    <mxGeometry relative="1" as="geometry"/>
                </mxCell>
                
                <!-- 阶段5: RAG+CoT协同 -->
                <mxCell id="stage5-marker" value="" style="ellipse;whiteSpace=wrap;html=1;fillColor=#9C27B0;strokeColor=#7B1FA2;" parent="1" vertex="1">
                    <mxGeometry x="800" y="385" width="30" height="30" as="geometry"/>
                </mxCell>
                
                <mxCell id="stage5-date" value="2024-2025" style="text;html=1;strokeColor=none;fillColor=none;align=center;verticalAlign=middle;whiteSpace=wrap;rounded=0;fontSize=12;fontStyle=1;" parent="1" vertex="1">
                    <mxGeometry x="775" y="340" width="80" height="30" as="geometry"/>
                </mxCell>
                
                <mxCell id="stage5-content" value="RAG+CoT协同阶段&#xa;• 思维链推理集成&#xa;• 多步逻辑分析&#xa;• 可解释AI推理&#xa;• 因果链构建" style="rounded=1;whiteSpace=wrap;html=1;fillColor=#e1bee7;strokeColor=#9C27B0;fontSize=10;arcSize=10;" parent="1" vertex="1">
                    <mxGeometry x="720" y="240" width="170" height="80" as="geometry"/>
                </mxCell>
                
                <!-- 连接线5 -->
                <mxCell id="connect5" value="" style="edgeStyle=orthogonalEdgeStyle;rounded=0;orthogonalLoop=1;jettySize=auto;html=1;strokeWidth=2;strokeColor=#9C27B0;" parent="1" source="stage5-marker" target="stage5-content" edge="1">
                    <mxGeometry relative="1" as="geometry"/>
                </mxCell>
                
                <!-- 阶段6: 未来展望 -->
                <mxCell id="stage6-marker" value="" style="ellipse;whiteSpace=wrap;html=1;fillColor=#607D8B;strokeColor=#455A64;" parent="1" vertex="1">
                    <mxGeometry x="950" y="385" width="30" height="30" as="geometry"/>
                </mxCell>
                
                <mxCell id="stage6-date" value="2025+" style="text;html=1;strokeColor=none;fillColor=none;align=center;verticalAlign=middle;whiteSpace=wrap;rounded=0;fontSize=12;fontStyle=1;" parent="1" vertex="1">
                    <mxGeometry x="935" y="450" width="60" height="30" as="geometry"/>
                </mxCell>
                
                <mxCell id="stage6-content" value="未来发展展望&#xa;• 自主进化系统&#xa;• 多智能体协同&#xa;• 全域感知分析&#xa;• 自愈式电网" style="rounded=1;whiteSpace=wrap;html=1;fillColor=#cfd8dc;strokeColor=#607D8B;fontSize=10;arcSize=10;" parent="1" vertex="1">
                    <mxGeometry x="870" y="500" width="170" height="80" as="geometry"/>
                </mxCell>
                
                <!-- 连接线6 -->
                <mxCell id="connect6" value="" style="edgeStyle=orthogonalEdgeStyle;rounded=0;orthogonalLoop=1;jettySize=auto;html=1;strokeWidth=2;strokeColor=#607D8B;" parent="1" source="stage6-marker" target="stage6-content" edge="1">
                    <mxGeometry relative="1" as="geometry"/>
                </mxCell>
                
                <!-- 里程碑事件 -->
                <!-- 里程碑1 -->
                <mxCell id="milestone1" value="🏆 首个SCADA系统&#xa;投入使用" style="rounded=1;whiteSpace=wrap;html=1;fillColor=#fff8e1;strokeColor=#FFC107;fontSize=9;fontStyle=1;arcSize=15;" parent="1" vertex="1">
                    <mxGeometry x="300" y="140" width="100" height="50" as="geometry"/>
                </mxCell>
                
                <!-- 里程碑2 -->
                <mxCell id="milestone2" value="🏆 AI算法首次&#xa;应用于故障预测" style="rounded=1;whiteSpace=wrap;html=1;fillColor=#fff8e1;strokeColor=#FFC107;fontSize=9;fontStyle=1;arcSize=15;" parent="1" vertex="1">
                    <mxGeometry x="450" y="620" width="100" height="50" as="geometry"/>
                </mxCell>
                
                <!-- 里程碑3 -->
                <mxCell id="milestone3" value="🏆 RAG+CoT协同&#xa;系统原型完成" style="rounded=1;whiteSpace=wrap;html=1;fillColor=#fff8e1;strokeColor=#FFC107;fontSize=9;fontStyle=1;arcSize=15;" parent="1" vertex="1">
                    <mxGeometry x="750" y="140" width="100" height="50" as="geometry"/>
                </mxCell>
                
                <!-- 技术指标进展 -->
                <mxCell id="metrics-title" value="关键技术指标进展" style="text;html=1;strokeColor=none;fillColor=none;align=center;verticalAlign=middle;whiteSpace=wrap;rounded=0;fontSize=14;fontStyle=1;fontColor=#424242;" parent="1" vertex="1">
                    <mxGeometry x="150" y="650" width="200" height="30" as="geometry"/>
                </mxCell>
                
                <!-- 准确率进展 -->
                <mxCell id="accuracy-progress" value="故障诊断准确率:&#xa;60% → 75% → 85% → 92%" style="rounded=1;whiteSpace=wrap;html=1;fillColor=#e8f5e8;strokeColor=#4CAF50;fontSize=10;arcSize=10;" parent="1" vertex="1">
                    <mxGeometry x="150" y="690" width="200" height="40" as="geometry"/>
                </mxCell>
                
                <!-- 响应时间进展 -->
                <mxCell id="response-progress" value="故障响应时间:&#xa;2小时 → 30分钟 → 5分钟 → 1分钟" style="rounded=1;whiteSpace=wrap;html=1;fillColor=#e3f2fd;strokeColor=#2196F3;fontSize=10;arcSize=10;" parent="1" vertex="1">
                    <mxGeometry x="370" y="690" width="200" height="40" as="geometry"/>
                </mxCell>
                
                <!-- 智能化程度 -->
                <mxCell id="intelligence-progress" value="智能化程度:&#xa;人工主导 → 半自动 → 智能辅助 → 自主决策" style="rounded=1;whiteSpace=wrap;html=1;fillColor=#f3e5f5;strokeColor=#9C27B0;fontSize=10;arcSize=10;" parent="1" vertex="1">
                    <mxGeometry x="590" y="690" width="200" height="40" as="geometry"/>
                </mxCell>
                
                <!-- 知识覆盖度 -->
                <mxCell id="coverage-progress" value="知识覆盖度:&#xa;局部经验 → 标准规程 → 案例库 → 全域知识图谱" style="rounded=1;whiteSpace=wrap;html=1;fillColor=#fff3e0;strokeColor=#FF9800;fontSize=10;arcSize=10;" parent="1" vertex="1">
                    <mxGeometry x="810" y="690" width="200" height="40" as="geometry"/>
                </mxCell>
                
                <!-- 当前位置标记 -->
                <mxCell id="current-position" value="当前阶段" style="shape=mxgraph.basic.banner;whiteSpace=wrap;html=1;fillColor=#4CAF50;strokeColor=#2E7D32;fontSize=12;fontStyle=1;fontColor=#FFFFFF;" parent="1" vertex="1">
                    <mxGeometry x="750" y="450" width="100" height="40" as="geometry"/>
                </mxCell>
                
                <!-- 箭头指向当前 -->
                <mxCell id="current-arrow" style="edgeStyle=orthogonalEdgeStyle;rounded=0;orthogonalLoop=1;jettySize=auto;html=1;strokeWidth=3;strokeColor=#4CAF50;" parent="1" source="current-position" target="stage5-marker" edge="1">
                    <mxGeometry relative="1" as="geometry"/>
                </mxCell>
            </root>
        </mxGraphModel>
    </diagram>
</mxfile>